# xmcd
#
# Track frame offsets:
# 150
# 13962
# 28235
# 37717
# 50845
# 62815
# 75407
# 89670
# 100837
# 113135
# 124607
# 134410
# 147320
# 161022
# 170225
# 180637
# 194410
# 206927
# 215860
# 228347
# 242195
# 253945
#
# Disc length: 3542 seconds
#
#
# Revision: 0
# Processed by: cddbd v1.5.2PL0 Copyright (c) Steve Scherf et al.
# Submitted via: FreeRIP 2.95 
#
DISCID=520dd416
DTITLE=Stoiber Buam - Mir san vom Woid dahoam - Mir san vom Woid dahoam
DYEAR=1900
DGENRE=neu
TTITLE0=Mir san vom Woid dahoam
TTITLE1=Der Wildschützen Franzl
TTITLE2=Schau, schau wias renga duat
TTITLE3=Grüße an den Böhmerwald
TTITLE4=I bin a Waidla Bua
TTITLE5=Auf da Hausbank
TTITLE6=S' Kammerfensterl
TTITLE7=Die Regenhüttlerbuam
TTITLE8=Bei meine Tannenbaum
TTITLE9=Spaziergang an der Devenik
TTITLE10=Draus at hoi Eschlkam
TTITLE11=Bauernhochzeit
TTITLE12=D' Waiatz
TTITLE13=Wo der Hirschbach rauscht
TTITLE14=Es ist so still da draust
TTITLE15=Droben am Schachten
TTITLE16=D' Schwirza vom Landl
TTITLE17=Lindberger Polka
TTITLE18=Der Weg zu mein Deandl is stoani
TTITLE19=Urlaub im bayerischen Wald
TTITLE20=Schwarz wia de Kerschen
TTITLE21=Wenn de Schrammeln spielen
EXTD=
EXTT0=
EXTT1=
EXTT2=
EXTT3=
EXTT4=
EXTT5=
EXTT6=
EXTT7=
EXTT8=
EXTT9=
EXTT10=
EXTT11=
EXTT12=
EXTT13=
EXTT14=
EXTT15=
EXTT16=
EXTT17=
EXTT18=
EXTT19=
EXTT20=
EXTT21=
PLAYORDER=
